<mxfile host="app.diagrams.net" modified="2023-12-28T08:26:43.909Z" agent="Mozilla/5.0 (Windows NT 10.0; Win64; x64) AppleWebKit/537.36 (KHTML, like Gecko) Chrome/120.0.0.0 Safari/537.36" etag="w54N72nG1v3_2m6drjs3" version="22.1.15" type="github">
  <diagram id="C5RBs43oDa-KdzZeNtuy" name="Page-1">
    <mxGraphModel dx="2206" dy="1188" grid="1" gridSize="10" guides="1" tooltips="1" connect="1" arrows="1" fold="1" page="1" pageScale="1" pageWidth="2336" pageHeight="1654" math="0" shadow="0">
      <root>
        <mxCell id="WIyWlLk6GJQsqaUBKTNV-0" />
        <mxCell id="WIyWlLk6GJQsqaUBKTNV-1" parent="WIyWlLk6GJQsqaUBKTNV-0" />
        <mxCell id="zkfFHV4jXpPFQw0GAbJ--13" value="ChessAI&#xa;" style="swimlane;fontStyle=0;align=center;verticalAlign=top;childLayout=stackLayout;horizontal=1;startSize=26;horizontalStack=0;resizeParent=1;resizeLast=0;collapsible=1;marginBottom=0;rounded=0;shadow=0;strokeWidth=1;" parent="WIyWlLk6GJQsqaUBKTNV-1" vertex="1">
          <mxGeometry x="1168" y="450" width="160" height="242" as="geometry">
            <mxRectangle x="340" y="380" width="170" height="26" as="alternateBounds" />
          </mxGeometry>
        </mxCell>
        <mxCell id="zkfFHV4jXpPFQw0GAbJ--14" value="NPCMove()" style="text;align=left;verticalAlign=top;spacingLeft=4;spacingRight=4;overflow=hidden;rotatable=0;points=[[0,0.5],[1,0.5]];portConstraint=eastwest;" parent="zkfFHV4jXpPFQw0GAbJ--13" vertex="1">
          <mxGeometry y="26" width="160" height="26" as="geometry" />
        </mxCell>
        <mxCell id="YyBfLoDIDOj0z5eIzJVB-147" value="Think()" style="text;align=left;verticalAlign=top;spacingLeft=4;spacingRight=4;overflow=hidden;rotatable=0;points=[[0,0.5],[1,0.5]];portConstraint=eastwest;" vertex="1" parent="zkfFHV4jXpPFQw0GAbJ--13">
          <mxGeometry y="52" width="160" height="26" as="geometry" />
        </mxCell>
        <mxCell id="YyBfLoDIDOj0z5eIzJVB-148" value="AlphaBeta()" style="text;align=left;verticalAlign=top;spacingLeft=4;spacingRight=4;overflow=hidden;rotatable=0;points=[[0,0.5],[1,0.5]];portConstraint=eastwest;" vertex="1" parent="zkfFHV4jXpPFQw0GAbJ--13">
          <mxGeometry y="78" width="160" height="26" as="geometry" />
        </mxCell>
        <mxCell id="YyBfLoDIDOj0z5eIzJVB-150" value="StaticEvaluationFunction()" style="text;align=left;verticalAlign=top;spacingLeft=4;spacingRight=4;overflow=hidden;rotatable=0;points=[[0,0.5],[1,0.5]];portConstraint=eastwest;" vertex="1" parent="zkfFHV4jXpPFQw0GAbJ--13">
          <mxGeometry y="104" width="160" height="26" as="geometry" />
        </mxCell>
        <mxCell id="YyBfLoDIDOj0z5eIzJVB-151" value="isGameOver()" style="text;align=left;verticalAlign=top;spacingLeft=4;spacingRight=4;overflow=hidden;rotatable=0;points=[[0,0.5],[1,0.5]];portConstraint=eastwest;" vertex="1" parent="zkfFHV4jXpPFQw0GAbJ--13">
          <mxGeometry y="130" width="160" height="26" as="geometry" />
        </mxCell>
        <mxCell id="YyBfLoDIDOj0z5eIzJVB-152" value="Move()" style="text;align=left;verticalAlign=top;spacingLeft=4;spacingRight=4;overflow=hidden;rotatable=0;points=[[0,0.5],[1,0.5]];portConstraint=eastwest;" vertex="1" parent="zkfFHV4jXpPFQw0GAbJ--13">
          <mxGeometry y="156" width="160" height="26" as="geometry" />
        </mxCell>
        <mxCell id="YyBfLoDIDOj0z5eIzJVB-153" value="Undo()" style="text;align=left;verticalAlign=top;spacingLeft=4;spacingRight=4;overflow=hidden;rotatable=0;points=[[0,0.5],[1,0.5]];portConstraint=eastwest;" vertex="1" parent="zkfFHV4jXpPFQw0GAbJ--13">
          <mxGeometry y="182" width="160" height="26" as="geometry" />
        </mxCell>
        <mxCell id="YyBfLoDIDOj0z5eIzJVB-154" value="Shuffle()" style="text;align=left;verticalAlign=top;spacingLeft=4;spacingRight=4;overflow=hidden;rotatable=0;points=[[0,0.5],[1,0.5]];portConstraint=eastwest;" vertex="1" parent="zkfFHV4jXpPFQw0GAbJ--13">
          <mxGeometry y="208" width="160" height="26" as="geometry" />
        </mxCell>
        <mxCell id="YyBfLoDIDOj0z5eIzJVB-8" value="" style="group;fontStyle=1" vertex="1" connectable="0" parent="WIyWlLk6GJQsqaUBKTNV-1">
          <mxGeometry x="860" y="720" width="160" height="209" as="geometry" />
        </mxCell>
        <mxCell id="zkfFHV4jXpPFQw0GAbJ--0" value="BoardManager" style="swimlane;fontStyle=2;align=center;verticalAlign=top;childLayout=stackLayout;horizontal=1;startSize=26;horizontalStack=0;resizeParent=1;resizeLast=0;collapsible=1;marginBottom=0;rounded=0;shadow=0;strokeWidth=1;" parent="YyBfLoDIDOj0z5eIzJVB-8" vertex="1">
          <mxGeometry y="29" width="160" height="258" as="geometry">
            <mxRectangle x="230" y="140" width="160" height="26" as="alternateBounds" />
          </mxGeometry>
        </mxCell>
        <mxCell id="zkfFHV4jXpPFQw0GAbJ--1" value="SpawnAllChessmans()" style="text;align=left;verticalAlign=top;spacingLeft=4;spacingRight=4;overflow=hidden;rotatable=0;points=[[0,0.5],[1,0.5]];portConstraint=eastwest;" parent="zkfFHV4jXpPFQw0GAbJ--0" vertex="1">
          <mxGeometry y="26" width="160" height="26" as="geometry" />
        </mxCell>
        <mxCell id="zkfFHV4jXpPFQw0GAbJ--2" value="SpawnChessMan()" style="text;align=left;verticalAlign=top;spacingLeft=4;spacingRight=4;overflow=hidden;rotatable=0;points=[[0,0.5],[1,0.5]];portConstraint=eastwest;rounded=0;shadow=0;html=0;" parent="zkfFHV4jXpPFQw0GAbJ--0" vertex="1">
          <mxGeometry y="52" width="160" height="26" as="geometry" />
        </mxCell>
        <mxCell id="zkfFHV4jXpPFQw0GAbJ--3" value="MoveChessman()" style="text;align=left;verticalAlign=top;spacingLeft=4;spacingRight=4;overflow=hidden;rotatable=0;points=[[0,0.5],[1,0.5]];portConstraint=eastwest;rounded=0;shadow=0;html=0;" parent="zkfFHV4jXpPFQw0GAbJ--0" vertex="1">
          <mxGeometry y="78" width="160" height="26" as="geometry" />
        </mxCell>
        <mxCell id="YyBfLoDIDOj0z5eIzJVB-79" value="Move()" style="text;align=left;verticalAlign=top;spacingLeft=4;spacingRight=4;overflow=hidden;rotatable=0;points=[[0,0.5],[1,0.5]];portConstraint=eastwest;rounded=0;shadow=0;html=0;" vertex="1" parent="zkfFHV4jXpPFQw0GAbJ--0">
          <mxGeometry y="104" width="160" height="26" as="geometry" />
        </mxCell>
        <mxCell id="YyBfLoDIDOj0z5eIzJVB-80" value="isCheckMate()" style="text;align=left;verticalAlign=top;spacingLeft=4;spacingRight=4;overflow=hidden;rotatable=0;points=[[0,0.5],[1,0.5]];portConstraint=eastwest;rounded=0;shadow=0;html=0;" vertex="1" parent="zkfFHV4jXpPFQw0GAbJ--0">
          <mxGeometry y="130" width="160" height="26" as="geometry" />
        </mxCell>
        <mxCell id="YyBfLoDIDOj0z5eIzJVB-81" value="EndGame()" style="text;align=left;verticalAlign=top;spacingLeft=4;spacingRight=4;overflow=hidden;rotatable=0;points=[[0,0.5],[1,0.5]];portConstraint=eastwest;rounded=0;shadow=0;html=0;" vertex="1" parent="zkfFHV4jXpPFQw0GAbJ--0">
          <mxGeometry y="156" width="160" height="26" as="geometry" />
        </mxCell>
        <mxCell id="zkfFHV4jXpPFQw0GAbJ--4" value="" style="line;html=1;strokeWidth=1;align=left;verticalAlign=middle;spacingTop=-1;spacingLeft=3;spacingRight=3;rotatable=0;labelPosition=right;points=[];portConstraint=eastwest;" parent="zkfFHV4jXpPFQw0GAbJ--0" vertex="1">
          <mxGeometry y="182" width="160" height="8" as="geometry" />
        </mxCell>
        <mxCell id="zkfFHV4jXpPFQw0GAbJ--5" value="ChessAI" style="text;align=left;verticalAlign=top;spacingLeft=4;spacingRight=4;overflow=hidden;rotatable=0;points=[[0,0.5],[1,0.5]];portConstraint=eastwest;" parent="zkfFHV4jXpPFQw0GAbJ--0" vertex="1">
          <mxGeometry y="190" width="160" height="30" as="geometry" />
        </mxCell>
        <mxCell id="YyBfLoDIDOj0z5eIzJVB-7" value="&lt;span&gt;전체적인 움직임 관리&lt;/span&gt;" style="text;html=1;strokeColor=none;fillColor=none;align=center;verticalAlign=middle;whiteSpace=wrap;rounded=0;fontStyle=0" vertex="1" parent="YyBfLoDIDOj0z5eIzJVB-8">
          <mxGeometry x="20" width="120" height="30" as="geometry" />
        </mxCell>
        <mxCell id="YyBfLoDIDOj0z5eIzJVB-19" value="King" style="swimlane;fontStyle=0;align=center;verticalAlign=top;childLayout=stackLayout;horizontal=1;startSize=26;horizontalStack=0;resizeParent=1;resizeLast=0;collapsible=1;marginBottom=0;rounded=0;shadow=0;strokeWidth=1;" vertex="1" parent="WIyWlLk6GJQsqaUBKTNV-1">
          <mxGeometry x="1450" y="732.36" width="160" height="143.63809523809522" as="geometry">
            <mxRectangle x="1400" y="676.5" width="170" height="26" as="alternateBounds" />
          </mxGeometry>
        </mxCell>
        <mxCell id="YyBfLoDIDOj0z5eIzJVB-20" value="Base.PossibleMoves()" style="text;align=left;verticalAlign=top;spacingLeft=4;spacingRight=4;overflow=hidden;rotatable=0;points=[[0,0.5],[1,0.5]];portConstraint=eastwest;" vertex="1" parent="YyBfLoDIDOj0z5eIzJVB-19">
          <mxGeometry y="26" width="160" height="26" as="geometry" />
        </mxCell>
        <mxCell id="YyBfLoDIDOj0z5eIzJVB-78" value="KingMove()" style="text;align=left;verticalAlign=top;spacingLeft=4;spacingRight=4;overflow=hidden;rotatable=0;points=[[0,0.5],[1,0.5]];portConstraint=eastwest;" vertex="1" parent="YyBfLoDIDOj0z5eIzJVB-19">
          <mxGeometry y="52" width="160" height="26" as="geometry" />
        </mxCell>
        <mxCell id="YyBfLoDIDOj0z5eIzJVB-118" value="CheckCastlingMoves()" style="text;align=left;verticalAlign=top;spacingLeft=4;spacingRight=4;overflow=hidden;rotatable=0;points=[[0,0.5],[1,0.5]];portConstraint=eastwest;" vertex="1" parent="YyBfLoDIDOj0z5eIzJVB-19">
          <mxGeometry y="78" width="160" height="26" as="geometry" />
        </mxCell>
        <mxCell id="YyBfLoDIDOj0z5eIzJVB-77" value="" style="line;html=1;strokeWidth=1;align=left;verticalAlign=middle;spacingTop=-1;spacingLeft=3;spacingRight=3;rotatable=0;labelPosition=right;points=[];portConstraint=eastwest;" vertex="1" parent="YyBfLoDIDOj0z5eIzJVB-19">
          <mxGeometry y="104" width="160" height="9.638095238095238" as="geometry" />
        </mxCell>
        <mxCell id="YyBfLoDIDOj0z5eIzJVB-112" value="value = 900" style="text;html=1;align=center;verticalAlign=middle;resizable=0;points=[];autosize=1;strokeColor=none;fillColor=none;" vertex="1" parent="YyBfLoDIDOj0z5eIzJVB-19">
          <mxGeometry y="113.63809523809523" width="160" height="30" as="geometry" />
        </mxCell>
        <mxCell id="YyBfLoDIDOj0z5eIzJVB-36" value="CH_GrabInterable" style="swimlane;fontStyle=0;align=center;verticalAlign=top;childLayout=stackLayout;horizontal=1;startSize=26;horizontalStack=0;resizeParent=1;resizeLast=0;collapsible=1;marginBottom=0;rounded=0;shadow=0;strokeWidth=1;" vertex="1" parent="WIyWlLk6GJQsqaUBKTNV-1">
          <mxGeometry x="540" y="969" width="160" height="90" as="geometry">
            <mxRectangle x="340" y="380" width="170" height="26" as="alternateBounds" />
          </mxGeometry>
        </mxCell>
        <mxCell id="YyBfLoDIDOj0z5eIzJVB-37" value="Base.Grab()" style="text;align=left;verticalAlign=top;spacingLeft=4;spacingRight=4;overflow=hidden;rotatable=0;points=[[0,0.5],[1,0.5]];portConstraint=eastwest;" vertex="1" parent="YyBfLoDIDOj0z5eIzJVB-36">
          <mxGeometry y="26" width="160" height="24" as="geometry" />
        </mxCell>
        <mxCell id="YyBfLoDIDOj0z5eIzJVB-66" value="Base.Drop()" style="text;align=left;verticalAlign=top;spacingLeft=4;spacingRight=4;overflow=hidden;rotatable=0;points=[[0,0.5],[1,0.5]];portConstraint=eastwest;" vertex="1" parent="YyBfLoDIDOj0z5eIzJVB-36">
          <mxGeometry y="50" width="160" height="24" as="geometry" />
        </mxCell>
        <mxCell id="YyBfLoDIDOj0z5eIzJVB-46" value="" style="endArrow=block;html=1;rounded=0;endFill=0;" edge="1" parent="WIyWlLk6GJQsqaUBKTNV-1">
          <mxGeometry relative="1" as="geometry">
            <mxPoint x="310" y="980" as="sourcePoint" />
            <mxPoint x="510" y="980" as="targetPoint" />
          </mxGeometry>
        </mxCell>
        <mxCell id="YyBfLoDIDOj0z5eIzJVB-47" value="XRGrabInteractable 상속" style="edgeLabel;resizable=0;html=1;align=center;verticalAlign=middle;" connectable="0" vertex="1" parent="YyBfLoDIDOj0z5eIzJVB-46">
          <mxGeometry relative="1" as="geometry" />
        </mxCell>
        <mxCell id="YyBfLoDIDOj0z5eIzJVB-159" style="edgeStyle=orthogonalEdgeStyle;rounded=0;orthogonalLoop=1;jettySize=auto;html=1;exitX=0.5;exitY=1;exitDx=0;exitDy=0;entryX=0.5;entryY=0;entryDx=0;entryDy=0;shape=flexArrow;startArrow=block;" edge="1" parent="WIyWlLk6GJQsqaUBKTNV-1" source="YyBfLoDIDOj0z5eIzJVB-50" target="YyBfLoDIDOj0z5eIzJVB-51">
          <mxGeometry relative="1" as="geometry" />
        </mxCell>
        <mxCell id="YyBfLoDIDOj0z5eIzJVB-160" style="edgeStyle=orthogonalEdgeStyle;rounded=0;orthogonalLoop=1;jettySize=auto;html=1;entryX=0;entryY=0.5;entryDx=0;entryDy=0;" edge="1" parent="WIyWlLk6GJQsqaUBKTNV-1" source="YyBfLoDIDOj0z5eIzJVB-50" target="zkfFHV4jXpPFQw0GAbJ--3">
          <mxGeometry relative="1" as="geometry">
            <Array as="points">
              <mxPoint x="770" y="535" />
              <mxPoint x="770" y="840" />
            </Array>
          </mxGeometry>
        </mxCell>
        <mxCell id="YyBfLoDIDOj0z5eIzJVB-50" value="AI Turn" style="text;html=1;strokeColor=none;fillColor=none;align=center;verticalAlign=middle;whiteSpace=wrap;rounded=0;fontStyle=1;fontSize=20;" vertex="1" parent="WIyWlLk6GJQsqaUBKTNV-1">
          <mxGeometry x="555" y="520" width="130" height="30" as="geometry" />
        </mxCell>
        <mxCell id="YyBfLoDIDOj0z5eIzJVB-51" value="Man Turn" style="text;html=1;strokeColor=none;fillColor=none;align=center;verticalAlign=middle;whiteSpace=wrap;rounded=0;fontStyle=1;fontSize=20;" vertex="1" parent="WIyWlLk6GJQsqaUBKTNV-1">
          <mxGeometry x="555" y="930" width="130" height="30" as="geometry" />
        </mxCell>
        <mxCell id="YyBfLoDIDOj0z5eIzJVB-54" value="" style="group" vertex="1" connectable="0" parent="WIyWlLk6GJQsqaUBKTNV-1">
          <mxGeometry x="1170" y="787" width="160" height="253" as="geometry" />
        </mxCell>
        <mxCell id="YyBfLoDIDOj0z5eIzJVB-4" value="Chessman" style="swimlane;fontStyle=0;align=center;verticalAlign=top;childLayout=stackLayout;horizontal=1;startSize=30;horizontalStack=0;resizeParent=1;resizeLast=0;collapsible=1;marginBottom=0;rounded=0;shadow=0;strokeWidth=1;" vertex="1" parent="YyBfLoDIDOj0z5eIzJVB-54">
          <mxGeometry y="36.14285714285714" width="160" height="216.85714285714283" as="geometry">
            <mxRectangle x="340" y="380" width="170" height="26" as="alternateBounds" />
          </mxGeometry>
        </mxCell>
        <mxCell id="YyBfLoDIDOj0z5eIzJVB-5" value="SetPosition()" style="text;align=left;verticalAlign=top;spacingLeft=4;spacingRight=4;overflow=hidden;rotatable=0;points=[[0,0.5],[1,0.5]];portConstraint=eastwest;spacingTop=0;spacingBottom=5;whiteSpace=wrap;" vertex="1" parent="YyBfLoDIDOj0z5eIzJVB-4">
          <mxGeometry y="30" width="160" height="30" as="geometry" />
        </mxCell>
        <mxCell id="YyBfLoDIDOj0z5eIzJVB-70" value="Move()" style="text;align=left;verticalAlign=top;spacingLeft=4;spacingRight=4;overflow=hidden;rotatable=0;points=[[0,0.5],[1,0.5]];portConstraint=eastwest;spacingTop=0;spacingBottom=5;whiteSpace=wrap;" vertex="1" parent="YyBfLoDIDOj0z5eIzJVB-4">
          <mxGeometry y="60" width="160" height="30" as="geometry" />
        </mxCell>
        <mxCell id="YyBfLoDIDOj0z5eIzJVB-71" value="PossibleMoves()" style="text;align=left;verticalAlign=top;spacingLeft=4;spacingRight=4;overflow=hidden;rotatable=0;points=[[0,0.5],[1,0.5]];portConstraint=eastwest;spacingTop=0;spacingBottom=5;whiteSpace=wrap;" vertex="1" parent="YyBfLoDIDOj0z5eIzJVB-4">
          <mxGeometry y="90" width="160" height="30" as="geometry" />
        </mxCell>
        <mxCell id="YyBfLoDIDOj0z5eIzJVB-72" value="InDanger()" style="text;align=left;verticalAlign=top;spacingLeft=4;spacingRight=4;overflow=hidden;rotatable=0;points=[[0,0.5],[1,0.5]];portConstraint=eastwest;spacingTop=0;spacingBottom=5;whiteSpace=wrap;" vertex="1" parent="YyBfLoDIDOj0z5eIzJVB-4">
          <mxGeometry y="120" width="160" height="30" as="geometry" />
        </mxCell>
        <mxCell id="YyBfLoDIDOj0z5eIzJVB-6" value="" style="line;html=1;strokeWidth=1;align=left;verticalAlign=middle;spacingTop=-1;spacingLeft=3;spacingRight=3;rotatable=0;labelPosition=right;points=[];portConstraint=eastwest;" vertex="1" parent="YyBfLoDIDOj0z5eIzJVB-4">
          <mxGeometry y="150" width="160" height="9.638095238095238" as="geometry" />
        </mxCell>
        <mxCell id="YyBfLoDIDOj0z5eIzJVB-164" style="edgeStyle=orthogonalEdgeStyle;rounded=0;orthogonalLoop=1;jettySize=auto;html=1;startArrow=classic;startFill=1;" edge="1" parent="YyBfLoDIDOj0z5eIzJVB-54" source="YyBfLoDIDOj0z5eIzJVB-52">
          <mxGeometry relative="1" as="geometry">
            <mxPoint x="80.00000000000045" y="-87" as="targetPoint" />
          </mxGeometry>
        </mxCell>
        <mxCell id="YyBfLoDIDOj0z5eIzJVB-52" value="체스의 위치 및 움직임" style="text;html=1;strokeColor=none;fillColor=none;align=center;verticalAlign=middle;whiteSpace=wrap;rounded=0;" vertex="1" parent="YyBfLoDIDOj0z5eIzJVB-54">
          <mxGeometry x="35" width="90" height="36.14285714285714" as="geometry" />
        </mxCell>
        <mxCell id="YyBfLoDIDOj0z5eIzJVB-74" style="edgeStyle=orthogonalEdgeStyle;rounded=0;orthogonalLoop=1;jettySize=auto;html=1;exitX=1;exitY=0.5;exitDx=0;exitDy=0;entryX=0;entryY=0.5;entryDx=0;entryDy=0;" edge="1" parent="WIyWlLk6GJQsqaUBKTNV-1" source="YyBfLoDIDOj0z5eIzJVB-37" target="zkfFHV4jXpPFQw0GAbJ--7">
          <mxGeometry relative="1" as="geometry" />
        </mxCell>
        <mxCell id="YyBfLoDIDOj0z5eIzJVB-84" style="rounded=0;orthogonalLoop=1;jettySize=auto;html=1;edgeStyle=orthogonalEdgeStyle;startArrow=classic;startFill=1;" edge="1" parent="WIyWlLk6GJQsqaUBKTNV-1" source="YyBfLoDIDOj0z5eIzJVB-4" target="zkfFHV4jXpPFQw0GAbJ--0">
          <mxGeometry relative="1" as="geometry">
            <Array as="points">
              <mxPoint x="1090" y="920" />
              <mxPoint x="1090" y="870" />
            </Array>
          </mxGeometry>
        </mxCell>
        <mxCell id="YyBfLoDIDOj0z5eIzJVB-137" style="edgeStyle=orthogonalEdgeStyle;rounded=0;orthogonalLoop=1;jettySize=auto;html=1;endArrow=block;endFill=0;" edge="1" parent="WIyWlLk6GJQsqaUBKTNV-1" source="YyBfLoDIDOj0z5eIzJVB-86">
          <mxGeometry relative="1" as="geometry">
            <mxPoint x="1330" y="840" as="targetPoint" />
            <Array as="points">
              <mxPoint x="1390" y="948" />
              <mxPoint x="1390" y="840" />
            </Array>
          </mxGeometry>
        </mxCell>
        <mxCell id="YyBfLoDIDOj0z5eIzJVB-86" value="Queen" style="swimlane;fontStyle=0;align=center;verticalAlign=top;childLayout=stackLayout;horizontal=1;startSize=26;horizontalStack=0;resizeParent=1;resizeLast=0;collapsible=1;marginBottom=0;rounded=0;shadow=0;strokeWidth=1;" vertex="1" parent="WIyWlLk6GJQsqaUBKTNV-1">
          <mxGeometry x="1450" y="886" width="160" height="123.5" as="geometry">
            <mxRectangle x="1400" y="676.5" width="170" height="26" as="alternateBounds" />
          </mxGeometry>
        </mxCell>
        <mxCell id="YyBfLoDIDOj0z5eIzJVB-87" value="Base.PossibleMoves()" style="text;align=left;verticalAlign=top;spacingLeft=4;spacingRight=4;overflow=hidden;rotatable=0;points=[[0,0.5],[1,0.5]];portConstraint=eastwest;" vertex="1" parent="YyBfLoDIDOj0z5eIzJVB-86">
          <mxGeometry y="26" width="160" height="26" as="geometry" />
        </mxCell>
        <mxCell id="YyBfLoDIDOj0z5eIzJVB-88" value="QueenMove()" style="text;align=left;verticalAlign=top;spacingLeft=4;spacingRight=4;overflow=hidden;rotatable=0;points=[[0,0.5],[1,0.5]];portConstraint=eastwest;" vertex="1" parent="YyBfLoDIDOj0z5eIzJVB-86">
          <mxGeometry y="52" width="160" height="26" as="geometry" />
        </mxCell>
        <mxCell id="YyBfLoDIDOj0z5eIzJVB-89" value="" style="line;html=1;strokeWidth=1;align=left;verticalAlign=middle;spacingTop=-1;spacingLeft=3;spacingRight=3;rotatable=0;labelPosition=right;points=[];portConstraint=eastwest;" vertex="1" parent="YyBfLoDIDOj0z5eIzJVB-86">
          <mxGeometry y="78" width="160" height="9.638095238095238" as="geometry" />
        </mxCell>
        <mxCell id="YyBfLoDIDOj0z5eIzJVB-113" value="value = 90" style="text;html=1;align=center;verticalAlign=middle;resizable=0;points=[];autosize=1;strokeColor=none;fillColor=none;" vertex="1" parent="YyBfLoDIDOj0z5eIzJVB-86">
          <mxGeometry y="87.63809523809523" width="160" height="30" as="geometry" />
        </mxCell>
        <mxCell id="YyBfLoDIDOj0z5eIzJVB-95" value="Bishup" style="swimlane;fontStyle=0;align=center;verticalAlign=top;childLayout=stackLayout;horizontal=1;startSize=26;horizontalStack=0;resizeParent=1;resizeLast=0;collapsible=1;marginBottom=0;rounded=0;shadow=0;strokeWidth=1;" vertex="1" parent="WIyWlLk6GJQsqaUBKTNV-1">
          <mxGeometry x="1450" y="1025.8200000000002" width="160" height="123.5" as="geometry">
            <mxRectangle x="1400" y="676.5" width="170" height="26" as="alternateBounds" />
          </mxGeometry>
        </mxCell>
        <mxCell id="YyBfLoDIDOj0z5eIzJVB-96" value="Base.PossibleMoves()" style="text;align=left;verticalAlign=top;spacingLeft=4;spacingRight=4;overflow=hidden;rotatable=0;points=[[0,0.5],[1,0.5]];portConstraint=eastwest;" vertex="1" parent="YyBfLoDIDOj0z5eIzJVB-95">
          <mxGeometry y="26" width="160" height="26" as="geometry" />
        </mxCell>
        <mxCell id="YyBfLoDIDOj0z5eIzJVB-97" value="BishopMove" style="text;align=left;verticalAlign=top;spacingLeft=4;spacingRight=4;overflow=hidden;rotatable=0;points=[[0,0.5],[1,0.5]];portConstraint=eastwest;" vertex="1" parent="YyBfLoDIDOj0z5eIzJVB-95">
          <mxGeometry y="52" width="160" height="26" as="geometry" />
        </mxCell>
        <mxCell id="YyBfLoDIDOj0z5eIzJVB-98" value="" style="line;html=1;strokeWidth=1;align=left;verticalAlign=middle;spacingTop=-1;spacingLeft=3;spacingRight=3;rotatable=0;labelPosition=right;points=[];portConstraint=eastwest;" vertex="1" parent="YyBfLoDIDOj0z5eIzJVB-95">
          <mxGeometry y="78" width="160" height="9.638095238095238" as="geometry" />
        </mxCell>
        <mxCell id="YyBfLoDIDOj0z5eIzJVB-114" value="value = 30" style="text;html=1;align=center;verticalAlign=middle;resizable=0;points=[];autosize=1;strokeColor=none;fillColor=none;" vertex="1" parent="YyBfLoDIDOj0z5eIzJVB-95">
          <mxGeometry y="87.63809523809523" width="160" height="30" as="geometry" />
        </mxCell>
        <mxCell id="YyBfLoDIDOj0z5eIzJVB-99" value="Knight" style="swimlane;fontStyle=0;align=center;verticalAlign=top;childLayout=stackLayout;horizontal=1;startSize=26;horizontalStack=0;resizeParent=1;resizeLast=0;collapsible=1;marginBottom=0;rounded=0;shadow=0;strokeWidth=1;" vertex="1" parent="WIyWlLk6GJQsqaUBKTNV-1">
          <mxGeometry x="1450" y="1156" width="160" height="123.5" as="geometry">
            <mxRectangle x="1400" y="676.5" width="170" height="26" as="alternateBounds" />
          </mxGeometry>
        </mxCell>
        <mxCell id="YyBfLoDIDOj0z5eIzJVB-100" value="Base.PossibleMoves()" style="text;align=left;verticalAlign=top;spacingLeft=4;spacingRight=4;overflow=hidden;rotatable=0;points=[[0,0.5],[1,0.5]];portConstraint=eastwest;" vertex="1" parent="YyBfLoDIDOj0z5eIzJVB-99">
          <mxGeometry y="26" width="160" height="26" as="geometry" />
        </mxCell>
        <mxCell id="YyBfLoDIDOj0z5eIzJVB-101" value="knightMove()" style="text;align=left;verticalAlign=top;spacingLeft=4;spacingRight=4;overflow=hidden;rotatable=0;points=[[0,0.5],[1,0.5]];portConstraint=eastwest;" vertex="1" parent="YyBfLoDIDOj0z5eIzJVB-99">
          <mxGeometry y="52" width="160" height="26" as="geometry" />
        </mxCell>
        <mxCell id="YyBfLoDIDOj0z5eIzJVB-102" value="" style="line;html=1;strokeWidth=1;align=left;verticalAlign=middle;spacingTop=-1;spacingLeft=3;spacingRight=3;rotatable=0;labelPosition=right;points=[];portConstraint=eastwest;" vertex="1" parent="YyBfLoDIDOj0z5eIzJVB-99">
          <mxGeometry y="78" width="160" height="9.638095238095238" as="geometry" />
        </mxCell>
        <mxCell id="YyBfLoDIDOj0z5eIzJVB-115" value="value = 30" style="text;html=1;align=center;verticalAlign=middle;resizable=0;points=[];autosize=1;strokeColor=none;fillColor=none;" vertex="1" parent="YyBfLoDIDOj0z5eIzJVB-99">
          <mxGeometry y="87.63809523809523" width="160" height="30" as="geometry" />
        </mxCell>
        <mxCell id="YyBfLoDIDOj0z5eIzJVB-142" style="edgeStyle=orthogonalEdgeStyle;rounded=0;orthogonalLoop=1;jettySize=auto;html=1;endArrow=block;endFill=0;" edge="1" parent="WIyWlLk6GJQsqaUBKTNV-1" source="YyBfLoDIDOj0z5eIzJVB-103">
          <mxGeometry relative="1" as="geometry">
            <mxPoint x="1330" y="840" as="targetPoint" />
            <Array as="points">
              <mxPoint x="1390" y="1348" />
              <mxPoint x="1390" y="840" />
            </Array>
          </mxGeometry>
        </mxCell>
        <mxCell id="YyBfLoDIDOj0z5eIzJVB-103" value="Rook" style="swimlane;fontStyle=0;align=center;verticalAlign=top;childLayout=stackLayout;horizontal=1;startSize=26;horizontalStack=0;resizeParent=1;resizeLast=0;collapsible=1;marginBottom=0;rounded=0;shadow=0;strokeWidth=1;" vertex="1" parent="WIyWlLk6GJQsqaUBKTNV-1">
          <mxGeometry x="1450" y="1286" width="160" height="123.5" as="geometry">
            <mxRectangle x="1400" y="676.5" width="170" height="26" as="alternateBounds" />
          </mxGeometry>
        </mxCell>
        <mxCell id="YyBfLoDIDOj0z5eIzJVB-104" value="Base.PossibleMoves()" style="text;align=left;verticalAlign=top;spacingLeft=4;spacingRight=4;overflow=hidden;rotatable=0;points=[[0,0.5],[1,0.5]];portConstraint=eastwest;" vertex="1" parent="YyBfLoDIDOj0z5eIzJVB-103">
          <mxGeometry y="26" width="160" height="26" as="geometry" />
        </mxCell>
        <mxCell id="YyBfLoDIDOj0z5eIzJVB-105" value="RookMove()" style="text;align=left;verticalAlign=top;spacingLeft=4;spacingRight=4;overflow=hidden;rotatable=0;points=[[0,0.5],[1,0.5]];portConstraint=eastwest;" vertex="1" parent="YyBfLoDIDOj0z5eIzJVB-103">
          <mxGeometry y="52" width="160" height="26" as="geometry" />
        </mxCell>
        <mxCell id="YyBfLoDIDOj0z5eIzJVB-106" value="" style="line;html=1;strokeWidth=1;align=left;verticalAlign=middle;spacingTop=-1;spacingLeft=3;spacingRight=3;rotatable=0;labelPosition=right;points=[];portConstraint=eastwest;" vertex="1" parent="YyBfLoDIDOj0z5eIzJVB-103">
          <mxGeometry y="78" width="160" height="9.638095238095238" as="geometry" />
        </mxCell>
        <mxCell id="YyBfLoDIDOj0z5eIzJVB-116" value="value = 50" style="text;html=1;align=center;verticalAlign=middle;resizable=0;points=[];autosize=1;strokeColor=none;fillColor=none;" vertex="1" parent="YyBfLoDIDOj0z5eIzJVB-103">
          <mxGeometry y="87.63809523809523" width="160" height="30" as="geometry" />
        </mxCell>
        <mxCell id="YyBfLoDIDOj0z5eIzJVB-107" value="Pawn" style="swimlane;fontStyle=0;align=center;verticalAlign=top;childLayout=stackLayout;horizontal=1;startSize=26;horizontalStack=0;resizeParent=1;resizeLast=0;collapsible=1;marginBottom=0;rounded=0;shadow=0;strokeWidth=1;" vertex="1" parent="WIyWlLk6GJQsqaUBKTNV-1">
          <mxGeometry x="1450" y="1426" width="160" height="91.63809523809525" as="geometry">
            <mxRectangle x="1360" y="1320" width="170" height="26" as="alternateBounds" />
          </mxGeometry>
        </mxCell>
        <mxCell id="YyBfLoDIDOj0z5eIzJVB-108" value="Base.PossibleMoves()" style="text;align=left;verticalAlign=top;spacingLeft=4;spacingRight=4;overflow=hidden;rotatable=0;points=[[0,0.5],[1,0.5]];portConstraint=eastwest;" vertex="1" parent="YyBfLoDIDOj0z5eIzJVB-107">
          <mxGeometry y="26" width="160" height="26" as="geometry" />
        </mxCell>
        <mxCell id="YyBfLoDIDOj0z5eIzJVB-110" value="" style="line;html=1;strokeWidth=1;align=left;verticalAlign=middle;spacingTop=-1;spacingLeft=3;spacingRight=3;rotatable=0;labelPosition=right;points=[];portConstraint=eastwest;" vertex="1" parent="YyBfLoDIDOj0z5eIzJVB-107">
          <mxGeometry y="52" width="160" height="9.638095238095238" as="geometry" />
        </mxCell>
        <mxCell id="YyBfLoDIDOj0z5eIzJVB-117" value="value = 10" style="text;html=1;align=center;verticalAlign=middle;resizable=0;points=[];autosize=1;strokeColor=none;fillColor=none;" vertex="1" parent="YyBfLoDIDOj0z5eIzJVB-107">
          <mxGeometry y="61.63809523809524" width="160" height="30" as="geometry" />
        </mxCell>
        <mxCell id="YyBfLoDIDOj0z5eIzJVB-134" style="edgeStyle=orthogonalEdgeStyle;rounded=0;orthogonalLoop=1;jettySize=auto;html=1;strokeWidth=1;startArrow=block;startFill=0;endArrow=none;endFill=0;" edge="1" parent="WIyWlLk6GJQsqaUBKTNV-1" source="YyBfLoDIDOj0z5eIzJVB-4" target="YyBfLoDIDOj0z5eIzJVB-19">
          <mxGeometry relative="1" as="geometry">
            <Array as="points">
              <mxPoint x="1390" y="840" />
              <mxPoint x="1390" y="740" />
            </Array>
          </mxGeometry>
        </mxCell>
        <mxCell id="YyBfLoDIDOj0z5eIzJVB-139" style="edgeStyle=orthogonalEdgeStyle;rounded=0;orthogonalLoop=1;jettySize=auto;html=1;entryX=0.999;entryY=0.079;entryDx=0;entryDy=0;entryPerimeter=0;endArrow=block;endFill=0;" edge="1" parent="WIyWlLk6GJQsqaUBKTNV-1" source="YyBfLoDIDOj0z5eIzJVB-95" target="YyBfLoDIDOj0z5eIzJVB-4">
          <mxGeometry relative="1" as="geometry">
            <Array as="points">
              <mxPoint x="1390" y="1088" />
              <mxPoint x="1390" y="840" />
            </Array>
          </mxGeometry>
        </mxCell>
        <mxCell id="YyBfLoDIDOj0z5eIzJVB-144" style="edgeStyle=orthogonalEdgeStyle;rounded=0;orthogonalLoop=1;jettySize=auto;html=1;" edge="1" parent="WIyWlLk6GJQsqaUBKTNV-1" source="YyBfLoDIDOj0z5eIzJVB-71" target="zkfFHV4jXpPFQw0GAbJ--7">
          <mxGeometry relative="1" as="geometry">
            <Array as="points">
              <mxPoint x="1090" y="940" />
              <mxPoint x="1090" y="1108" />
            </Array>
          </mxGeometry>
        </mxCell>
        <mxCell id="YyBfLoDIDOj0z5eIzJVB-145" style="edgeStyle=orthogonalEdgeStyle;rounded=0;orthogonalLoop=1;jettySize=auto;html=1;" edge="1" parent="WIyWlLk6GJQsqaUBKTNV-1" source="YyBfLoDIDOj0z5eIzJVB-66" target="zkfFHV4jXpPFQw0GAbJ--3">
          <mxGeometry relative="1" as="geometry">
            <Array as="points">
              <mxPoint x="770" y="1031" />
              <mxPoint x="770" y="840" />
            </Array>
          </mxGeometry>
        </mxCell>
        <mxCell id="YyBfLoDIDOj0z5eIzJVB-141" style="edgeStyle=orthogonalEdgeStyle;rounded=0;orthogonalLoop=1;jettySize=auto;html=1;endArrow=block;endFill=0;" edge="1" parent="WIyWlLk6GJQsqaUBKTNV-1" source="YyBfLoDIDOj0z5eIzJVB-99" target="YyBfLoDIDOj0z5eIzJVB-4">
          <mxGeometry relative="1" as="geometry">
            <mxPoint x="1330" y="710" as="targetPoint" />
            <Array as="points">
              <mxPoint x="1390" y="1218" />
              <mxPoint x="1390" y="840" />
            </Array>
          </mxGeometry>
        </mxCell>
        <mxCell id="YyBfLoDIDOj0z5eIzJVB-146" value="" style="group" vertex="1" connectable="0" parent="WIyWlLk6GJQsqaUBKTNV-1">
          <mxGeometry x="860" y="1040" width="160" height="170" as="geometry" />
        </mxCell>
        <mxCell id="zkfFHV4jXpPFQw0GAbJ--6" value="BoardHighlight" style="swimlane;fontStyle=0;align=center;verticalAlign=top;childLayout=stackLayout;horizontal=1;startSize=26;horizontalStack=0;resizeParent=1;resizeLast=0;collapsible=1;marginBottom=0;rounded=0;shadow=0;strokeWidth=1;" parent="YyBfLoDIDOj0z5eIzJVB-146" vertex="1">
          <mxGeometry y="30" width="160" height="140" as="geometry">
            <mxRectangle x="130" y="380" width="160" height="26" as="alternateBounds" />
          </mxGeometry>
        </mxCell>
        <mxCell id="zkfFHV4jXpPFQw0GAbJ--7" value="HighlightPossibleMoves()" style="text;align=left;verticalAlign=top;spacingLeft=4;spacingRight=4;overflow=hidden;rotatable=0;points=[[0,0.5],[1,0.5]];portConstraint=eastwest;" parent="zkfFHV4jXpPFQw0GAbJ--6" vertex="1">
          <mxGeometry y="26" width="160" height="24" as="geometry" />
        </mxCell>
        <mxCell id="YyBfLoDIDOj0z5eIzJVB-73" value="deleteHightlight()" style="text;align=left;verticalAlign=top;spacingLeft=4;spacingRight=4;overflow=hidden;rotatable=0;points=[[0,0.5],[1,0.5]];portConstraint=eastwest;" vertex="1" parent="zkfFHV4jXpPFQw0GAbJ--6">
          <mxGeometry y="50" width="160" height="24" as="geometry" />
        </mxCell>
        <mxCell id="YyBfLoDIDOj0z5eIzJVB-30" value="갈 수 있는 위치" style="text;html=1;strokeColor=none;fillColor=none;align=center;verticalAlign=middle;whiteSpace=wrap;rounded=0;" vertex="1" parent="YyBfLoDIDOj0z5eIzJVB-146">
          <mxGeometry x="30" width="100" height="30" as="geometry" />
        </mxCell>
        <mxCell id="YyBfLoDIDOj0z5eIzJVB-143" style="edgeStyle=orthogonalEdgeStyle;rounded=0;orthogonalLoop=1;jettySize=auto;html=1;endArrow=block;endFill=0;" edge="1" parent="WIyWlLk6GJQsqaUBKTNV-1" source="YyBfLoDIDOj0z5eIzJVB-107">
          <mxGeometry relative="1" as="geometry">
            <mxPoint x="1330" y="840" as="targetPoint" />
            <Array as="points">
              <mxPoint x="1390" y="1440" />
              <mxPoint x="1390" y="840" />
              <mxPoint x="1330" y="840" />
            </Array>
          </mxGeometry>
        </mxCell>
        <mxCell id="YyBfLoDIDOj0z5eIzJVB-161" style="edgeStyle=orthogonalEdgeStyle;rounded=0;orthogonalLoop=1;jettySize=auto;html=1;" edge="1" parent="WIyWlLk6GJQsqaUBKTNV-1" source="zkfFHV4jXpPFQw0GAbJ--5" target="zkfFHV4jXpPFQw0GAbJ--14">
          <mxGeometry relative="1" as="geometry">
            <Array as="points">
              <mxPoint x="1100" y="954" />
              <mxPoint x="1100" y="489" />
            </Array>
          </mxGeometry>
        </mxCell>
        <mxCell id="YyBfLoDIDOj0z5eIzJVB-173" value="State" style="swimlane;fontStyle=0;align=center;verticalAlign=top;childLayout=stackLayout;horizontal=1;startSize=26;horizontalStack=0;resizeParent=1;resizeLast=0;collapsible=1;marginBottom=0;rounded=0;shadow=0;strokeWidth=1;" vertex="1" parent="WIyWlLk6GJQsqaUBKTNV-1">
          <mxGeometry x="1440" y="450" width="160" height="143.63809523809522" as="geometry">
            <mxRectangle x="1400" y="676.5" width="170" height="26" as="alternateBounds" />
          </mxGeometry>
        </mxCell>
        <mxCell id="YyBfLoDIDOj0z5eIzJVB-174" value="SetState()" style="text;align=left;verticalAlign=top;spacingLeft=4;spacingRight=4;overflow=hidden;rotatable=0;points=[[0,0.5],[1,0.5]];portConstraint=eastwest;" vertex="1" parent="YyBfLoDIDOj0z5eIzJVB-173">
          <mxGeometry y="26" width="160" height="26" as="geometry" />
        </mxCell>
        <mxCell id="YyBfLoDIDOj0z5eIzJVB-177" value="" style="line;html=1;strokeWidth=1;align=left;verticalAlign=middle;spacingTop=-1;spacingLeft=3;spacingRight=3;rotatable=0;labelPosition=right;points=[];portConstraint=eastwest;" vertex="1" parent="YyBfLoDIDOj0z5eIzJVB-173">
          <mxGeometry y="52" width="160" height="9.638095238095238" as="geometry" />
        </mxCell>
        <mxCell id="YyBfLoDIDOj0z5eIzJVB-178" value="상태변수 저장" style="text;html=1;align=center;verticalAlign=middle;resizable=0;points=[];autosize=1;strokeColor=none;fillColor=none;" vertex="1" parent="YyBfLoDIDOj0z5eIzJVB-173">
          <mxGeometry y="61.63809523809524" width="160" height="30" as="geometry" />
        </mxCell>
        <mxCell id="YyBfLoDIDOj0z5eIzJVB-179" value="이전 위치 새위치 등등" style="text;html=1;align=center;verticalAlign=middle;resizable=0;points=[];autosize=1;strokeColor=none;fillColor=none;" vertex="1" parent="YyBfLoDIDOj0z5eIzJVB-173">
          <mxGeometry y="91.63809523809525" width="160" height="30" as="geometry" />
        </mxCell>
        <mxCell id="YyBfLoDIDOj0z5eIzJVB-180" style="edgeStyle=orthogonalEdgeStyle;rounded=0;orthogonalLoop=1;jettySize=auto;html=1;startArrow=block;startFill=1;" edge="1" parent="WIyWlLk6GJQsqaUBKTNV-1" source="YyBfLoDIDOj0z5eIzJVB-153" target="YyBfLoDIDOj0z5eIzJVB-173">
          <mxGeometry relative="1" as="geometry" />
        </mxCell>
        <mxCell id="YyBfLoDIDOj0z5eIzJVB-181" style="edgeStyle=orthogonalEdgeStyle;rounded=0;orthogonalLoop=1;jettySize=auto;html=1;startArrow=block;startFill=1;" edge="1" parent="WIyWlLk6GJQsqaUBKTNV-1" source="YyBfLoDIDOj0z5eIzJVB-152" target="YyBfLoDIDOj0z5eIzJVB-173">
          <mxGeometry relative="1" as="geometry" />
        </mxCell>
      </root>
    </mxGraphModel>
  </diagram>
</mxfile>
